<?xml version="1.0" encoding="utf-8"?>
<!-- Generator: Adobe Illustrator 25.4.1, SVG Export Plug-In . SVG Version: 6.00 Build 0)  -->
<svg version="1.1" id="Layer_1" xmlns="http://www.w3.org/2000/svg" xmlns:xlink="http://www.w3.org/1999/xlink" x="0px" y="0px"
	 viewBox="0 0 600 200" style="enable-background:new 0 0 600 200;" xml:space="preserve">
<style type="text/css">
	.st0{fill:#FC7EDB;}
</style>
<g>
	<path class="st0" d="M21.2,74.6h13.6l14.3,43.4h0.2l13.8-43.4h12.9l-20.2,56.6h-14L21.2,74.6z"/>
	<path class="st0" d="M109.5,132.7c-4.5,0-8.6-0.7-12.1-2.2c-3.5-1.5-6.5-3.6-9-6.2c-2.4-2.6-4.3-5.8-5.6-9.4
		c-1.3-3.6-1.9-7.7-1.9-12c0-4.3,0.6-8.3,1.9-11.9c1.3-3.6,3.1-6.8,5.6-9.4c2.4-2.6,5.4-4.7,9-6.2c3.5-1.5,7.6-2.2,12.1-2.2
		c4.5,0,8.6,0.7,12.1,2.2c3.5,1.5,6.5,3.6,9,6.2c2.4,2.6,4.3,5.8,5.6,9.4c1.3,3.6,1.9,7.6,1.9,11.9c0,4.4-0.6,8.4-1.9,12
		c-1.3,3.6-3.1,6.8-5.6,9.4c-2.4,2.6-5.4,4.7-9,6.2C118.1,132,114.1,132.7,109.5,132.7z M109.5,122.9c2.8,0,5.2-0.6,7.2-1.8
		c2-1.2,3.7-2.7,5-4.6c1.3-1.9,2.3-4,2.9-6.4c0.6-2.4,0.9-4.8,0.9-7.3c0-2.4-0.3-4.8-0.9-7.2c-0.6-2.4-1.6-4.5-2.9-6.4
		c-1.3-1.9-3-3.4-5-4.5c-2-1.2-4.4-1.8-7.2-1.8c-2.8,0-5.2,0.6-7.2,1.8c-2,1.2-3.7,2.7-5,4.5c-1.3,1.9-2.3,4-2.9,6.4
		c-0.6,2.4-0.9,4.8-0.9,7.2c0,2.5,0.3,4.9,0.9,7.3c0.6,2.4,1.6,4.5,2.9,6.4c1.3,1.9,3,3.4,5,4.6
		C104.3,122.3,106.8,122.9,109.5,122.9z"/>
	<path class="st0" d="M163.7,101.4l-19.6-26.8h15.1L171,92l12.4-17.4h14.4l-19.3,26.1l21.7,30.4h-15l-14.3-20.9L157,131.2h-14.7
		L163.7,101.4z"/>
	<path class="st0" d="M217,106.1c0,2.2,0.3,4.3,0.9,6.3c0.6,2,1.5,3.8,2.8,5.4c1.2,1.5,2.8,2.8,4.7,3.7c1.9,0.9,4.2,1.4,6.8,1.4
		c3.6,0,6.6-0.8,8.8-2.4c2.2-1.6,3.9-3.9,5-7.1h11.8c-0.7,3.1-1.8,5.8-3.4,8.2c-1.6,2.4-3.5,4.4-5.8,6.1c-2.3,1.6-4.8,2.9-7.6,3.7
		c-2.8,0.8-5.7,1.3-8.8,1.3c-4.4,0-8.4-0.7-11.8-2.2c-3.4-1.5-6.3-3.5-8.7-6.1c-2.4-2.6-4.2-5.8-5.4-9.4c-1.2-3.6-1.8-7.7-1.8-12
		c0-4,0.6-7.8,1.9-11.4c1.3-3.6,3.1-6.8,5.5-9.5c2.4-2.7,5.2-4.9,8.6-6.5c3.4-1.6,7.1-2.4,11.4-2.4c4.4,0,8.4,0.9,12,2.8
		c3.5,1.9,6.5,4.3,8.8,7.4c2.3,3.1,4,6.6,5.1,10.6c1.1,4,1.3,8.1,0.8,12.3H217z M246.1,97.9c-0.1-2-0.6-3.9-1.3-5.7
		c-0.7-1.8-1.6-3.4-2.8-4.8c-1.2-1.3-2.7-2.4-4.4-3.3c-1.7-0.8-3.6-1.3-5.7-1.3c-2.2,0-4.2,0.4-6,1.1c-1.8,0.8-3.3,1.8-4.6,3.2
		c-1.3,1.4-2.3,2.9-3.1,4.8c-0.8,1.8-1.2,3.8-1.3,5.9H246.1z"/>
	<path class="st0" d="M268.4,53.1h12.5v78.1h-12.5V53.1z"/>
	<path class="st0" d="M294.7,53.1h12.5v11.8h-12.5V53.1z M294.7,74.6h12.5v56.6h-12.5V74.6z"/>
	<path class="st0" d="M318.8,74.6h46v8.8l-32.4,38h34v9.8h-49.8v-8.8l31.3-38h-29.1V74.6z"/>
	<path class="st0" d="M385.2,106.1c0,2.2,0.3,4.3,0.9,6.3c0.6,2,1.5,3.8,2.8,5.4c1.2,1.5,2.8,2.8,4.7,3.7c1.9,0.9,4.2,1.4,6.8,1.4
		c3.6,0,6.6-0.8,8.8-2.4c2.2-1.6,3.9-3.9,5-7.1H426c-0.7,3.1-1.8,5.8-3.4,8.2c-1.6,2.4-3.5,4.4-5.8,6.1c-2.3,1.6-4.8,2.9-7.6,3.7
		c-2.8,0.8-5.7,1.3-8.8,1.3c-4.5,0-8.4-0.7-11.8-2.2c-3.4-1.5-6.3-3.5-8.7-6.1c-2.4-2.6-4.2-5.8-5.4-9.4c-1.2-3.6-1.8-7.7-1.8-12
		c0-4,0.6-7.8,1.9-11.4c1.3-3.6,3.1-6.8,5.5-9.5c2.4-2.7,5.2-4.9,8.6-6.5c3.4-1.6,7.1-2.4,11.4-2.4c4.4,0,8.4,0.9,12,2.8
		c3.5,1.9,6.5,4.3,8.8,7.4c2.3,3.1,4,6.6,5.1,10.6c1.1,4,1.3,8.1,0.8,12.3H385.2z M414.3,97.9c-0.1-2-0.6-3.9-1.3-5.7
		c-0.7-1.8-1.6-3.4-2.8-4.8c-1.2-1.3-2.7-2.4-4.4-3.3c-1.7-0.8-3.6-1.3-5.7-1.3c-2.2,0-4.2,0.4-6,1.1c-1.8,0.8-3.3,1.8-4.6,3.2
		c-1.3,1.4-2.3,2.9-3.1,4.8c-0.8,1.8-1.2,3.8-1.3,5.9H414.3z"/>
	<path class="st0" d="M459,53.1h14.6l30.1,78.1h-14.7l-7.3-20.7h-31.2l-7.3,20.7H429L459,53.1z M454.2,100.1H478l-11.7-33.6H466
		L454.2,100.1z"/>
	<path class="st0" d="M511,53.1h37.3c8.6,0,15.1,1.9,19.4,5.6c4.3,3.7,6.5,8.9,6.5,15.5c0,3.7-0.5,6.8-1.6,9.2
		c-1.1,2.4-2.4,4.4-3.8,5.9c-1.5,1.5-2.9,2.6-4.3,3.2c-1.4,0.7-2.5,1.1-3.1,1.3v0.2c1.2,0.1,2.4,0.5,3.8,1.1
		c1.3,0.6,2.6,1.5,3.8,2.8c1.2,1.3,2.1,2.9,2.9,5c0.8,2,1.1,4.6,1.1,7.7c0,4.6,0.3,8.8,1,12.5c0.7,3.8,1.8,6.4,3.2,8h-14.7
		c-1-1.7-1.6-3.5-1.8-5.6c-0.2-2-0.3-4-0.3-5.9c0-3.6-0.2-6.7-0.7-9.2c-0.4-2.6-1.2-4.7-2.4-6.5c-1.2-1.7-2.8-3-4.8-3.8
		c-2-0.8-4.6-1.2-7.7-1.2h-20.1v32.2H511V53.1z M524.7,88.6h22.4c4.4,0,7.7-1,10-3.1c2.3-2.1,3.4-5.2,3.4-9.4c0-2.5-0.4-4.5-1.1-6.1
		c-0.7-1.6-1.7-2.8-3-3.7c-1.3-0.9-2.7-1.5-4.4-1.8c-1.6-0.3-3.3-0.4-5.1-0.4h-22.2V88.6z"/>
</g>
</svg>
