<?xml version="1.0" encoding="utf-8"?>
<!-- Generator: Adobe Illustrator 25.4.1, SVG Export Plug-In . SVG Version: 6.00 Build 0)  -->
<svg version="1.1" id="Layer_1" xmlns="http://www.w3.org/2000/svg" xmlns:xlink="http://www.w3.org/1999/xlink" x="0px" y="0px"
	 viewBox="0 0 600 200" style="enable-background:new 0 0 600 200;" xml:space="preserve">
<style type="text/css">
	.st0{clip-path:url(#SVGID_00000018220989104378130910000005952463460382446498_);fill:#31D8FF;}
	.st1{clip-path:url(#SVGID_00000018220989104378130910000005952463460382446498_);fill:#76FF86;}
	.st2{clip-path:url(#SVGID_00000018220989104378130910000005952463460382446498_);fill:#2DFFFF;}
	.st3{clip-path:url(#SVGID_00000018220989104378130910000005952463460382446498_);fill:#FF7B7B;}
	.st4{clip-path:url(#SVGID_00000018220989104378130910000005952463460382446498_);fill:#FFD0F6;}
	.st5{clip-path:url(#SVGID_00000018220989104378130910000005952463460382446498_);fill:#FFF681;}
	.st6{clip-path:url(#SVGID_00000018220989104378130910000005952463460382446498_);fill:#FFF6F6;}
	.st7{fill:#555555;}
</style>
<g>
	<g>
		<defs>
			<polyline id="SVGID_1_" points="14.31,35.89 142.53,35.89 142.53,164.11 14.31,164.11 14.31,35.89 			"/>
		</defs>
		<clipPath id="SVGID_00000005974160934977919060000006091985554293972907_">
			<use xlink:href="#SVGID_1_"  style="overflow:visible;"/>
		</clipPath>
		<path style="clip-path:url(#SVGID_00000005974160934977919060000006091985554293972907_);fill:#31D8FF;" d="M116.58,48.48
			c2.2,17.19-2.13,35.19-13.42,49.96c13.44,13.43,19.41,32.01,17.27,49.99c13.52-11.74,22.08-29.04,22.1-48.34v-0.18
			C142.5,78.84,132.3,60.15,116.58,48.48"/>
		<path style="clip-path:url(#SVGID_00000005974160934977919060000006091985554293972907_);fill:#76FF86;" d="M78.42,35.89
			L78.42,35.89c-35.38,0-64.06,28.66-64.11,64.02v0.18c0,0.57,0.01,1.13,0.02,1.7c11.92-13.9,28.88-21.12,45.99-21.12
			c1.1,0,2.2,0.03,3.3,0.09c2.16-7.47,5.8-14.65,10.98-21.09c7.41-9.22,16.97-15.71,27.38-19.3C94.69,37.48,86.74,35.89,78.42,35.89
			"/>
		<path style="clip-path:url(#SVGID_00000005974160934977919060000006091985554293972907_);fill:#2DFFFF;" d="M101.98,40.36
			c-10.41,3.6-19.97,10.08-27.38,19.3c-5.17,6.44-8.82,13.62-10.98,21.09c12.21,0.66,24.33,5.02,34.59,13.26
			c1.75,1.4,3.39,2.88,4.94,4.43c11.29-14.77,15.62-32.77,13.42-49.96C112.12,45.17,107.22,42.43,101.98,40.36"/>
		<path style="clip-path:url(#SVGID_00000005974160934977919060000006091985554293972907_);fill:#FF7B7B;" d="M16.58,116.97
			c7.44,27.17,32.31,47.14,61.84,47.14c10.84,0,21.06-2.69,30.01-7.44c-8.71-1.97-17.11-5.9-24.54-11.86
			c-7.59-6.1-13.33-13.65-17.12-21.94c-5.79,1.55-11.77,2.34-17.75,2.34C37.9,125.2,26.74,122.5,16.58,116.97"/>
		<path style="clip-path:url(#SVGID_00000005974160934977919060000006091985554293972907_);fill:#FFD0F6;" d="M103.15,98.44
			c-0.34,0.44-0.68,0.88-1.03,1.31c-9.41,11.71-21.89,19.49-35.36,23.11c3.8,8.29,9.53,15.84,17.12,21.94
			c7.43,5.97,15.83,9.9,24.54,11.86c4.32-2.29,8.34-5.06,12-8.23C122.56,130.45,116.6,111.88,103.15,98.44"/>
		<path style="clip-path:url(#SVGID_00000005974160934977919060000006091985554293972907_);fill:#FFF681;" d="M60.32,80.67
			c-17.11,0-34.07,7.22-45.99,21.12c0.14,5.24,0.92,10.33,2.25,15.19c10.16,5.53,21.32,8.23,32.43,8.23
			c5.99,0,11.96-0.79,17.75-2.34c-6.02-13.15-7.17-28.14-3.14-42.11C62.52,80.7,61.42,80.67,60.32,80.67"/>
		<path style="clip-path:url(#SVGID_00000005974160934977919060000006091985554293972907_);fill:#FFF6F6;" d="M63.62,80.76
			c-4.03,13.97-2.88,28.96,3.14,42.11c13.47-3.62,25.96-11.4,35.36-23.11c0.35-0.43,0.69-0.87,1.03-1.31
			c-1.55-1.55-3.2-3.03-4.94-4.43C87.95,85.77,75.83,81.42,63.62,80.76"/>
	</g>
</g>
<g>
	<path class="st7" d="M188.73,72.28c4.88,0,8.69,1.2,11.44,3.59c2.75,2.39,4.12,5.67,4.12,9.83c0,3.11-0.71,5.83-2.12,8.18
		c-1.41,2.34-3.67,3.94-6.78,4.81v0.14c1.48,0.29,2.69,0.77,3.62,1.43c0.93,0.67,1.67,1.47,2.22,2.4c0.55,0.93,0.96,1.97,1.22,3.12
		c0.26,1.15,0.47,2.34,0.61,3.59c0.1,1.24,0.17,2.51,0.22,3.8c0.05,1.29,0.17,2.56,0.36,3.8c0.19,1.24,0.47,2.43,0.82,3.55
		c0.36,1.12,0.9,2.12,1.61,2.98h-7.6c-0.48-0.53-0.8-1.24-0.97-2.15c-0.17-0.91-0.28-1.92-0.32-3.05c-0.05-1.12-0.1-2.33-0.14-3.62
		c-0.05-1.29-0.19-2.56-0.43-3.8c-0.19-1.24-0.43-2.43-0.72-3.55c-0.29-1.12-0.74-2.1-1.36-2.94c-0.62-0.84-1.43-1.51-2.44-2.01
		c-1-0.5-2.34-0.75-4.02-0.75h-16.64v21.87h-6.81V72.28H188.73z M190.17,95.51c1.43-0.24,2.69-0.7,3.77-1.4
		c1.08-0.69,1.94-1.62,2.58-2.8c0.65-1.17,0.97-2.69,0.97-4.55c0-2.58-0.72-4.69-2.15-6.31c-1.43-1.62-3.75-2.44-6.96-2.44h-16.93
		v17.86h14.2C187.22,95.87,188.73,95.75,190.17,95.51z"/>
	<path class="st7" d="M239.01,121.12c-2.77,2.1-6.26,3.16-10.47,3.16c-2.96,0-5.53-0.48-7.71-1.43c-2.18-0.96-4.01-2.29-5.49-4.02
		c-1.48-1.72-2.59-3.78-3.33-6.17c-0.74-2.39-1.16-5-1.25-7.82c0-2.82,0.43-5.4,1.29-7.75c0.86-2.34,2.07-4.38,3.62-6.1
		c1.55-1.72,3.39-3.06,5.52-4.02c2.13-0.96,4.46-1.43,6.99-1.43c3.3,0,6.04,0.68,8.21,2.04c2.18,1.36,3.92,3.1,5.24,5.2
		c1.31,2.1,2.22,4.4,2.73,6.88c0.5,2.49,0.7,4.85,0.61,7.1H217.2c-0.05,1.63,0.14,3.17,0.57,4.62c0.43,1.46,1.12,2.75,2.08,3.87
		c0.96,1.12,2.17,2.02,3.66,2.69c1.48,0.67,3.23,1,5.24,1c2.58,0,4.7-0.6,6.35-1.79c1.65-1.19,2.74-3.01,3.26-5.45h6.02
		C243.57,115.88,241.78,119.01,239.01,121.12z M237.54,97.31c-0.55-1.29-1.29-2.4-2.22-3.33c-0.93-0.93-2.03-1.67-3.3-2.22
		c-1.27-0.55-2.67-0.82-4.2-0.82c-1.58,0-3,0.28-4.27,0.82c-1.27,0.55-2.36,1.3-3.26,2.26c-0.91,0.96-1.63,2.07-2.15,3.33
		c-0.53,1.27-0.84,2.62-0.93,4.05h21.3C238.41,99.96,238.08,98.6,237.54,97.31z"/>
	<path class="st7" d="M284.12,123.34c-1.05,0.62-2.51,0.93-4.38,0.93c-1.58,0-2.83-0.44-3.77-1.33c-0.93-0.88-1.4-2.33-1.4-4.34
		c-1.67,2.01-3.62,3.46-5.85,4.34c-2.22,0.88-4.63,1.33-7.21,1.33c-1.67,0-3.26-0.19-4.77-0.57c-1.51-0.38-2.81-0.98-3.91-1.79
		c-1.1-0.81-1.97-1.88-2.62-3.19c-0.65-1.31-0.97-2.9-0.97-4.77c0-2.1,0.36-3.82,1.08-5.16c0.72-1.34,1.66-2.43,2.83-3.26
		c1.17-0.84,2.51-1.47,4.02-1.9c1.51-0.43,3.05-0.79,4.63-1.08c1.67-0.33,3.26-0.58,4.77-0.75c1.51-0.17,2.83-0.41,3.98-0.72
		c1.15-0.31,2.06-0.76,2.73-1.36c0.67-0.6,1-1.47,1-2.62c0-1.34-0.25-2.41-0.75-3.23c-0.5-0.81-1.15-1.43-1.94-1.86
		c-0.79-0.43-1.67-0.72-2.65-0.86c-0.98-0.14-1.95-0.21-2.9-0.21c-2.58,0-4.73,0.49-6.45,1.47c-1.72,0.98-2.65,2.83-2.8,5.56h-6.1
		c0.1-2.29,0.57-4.23,1.43-5.81c0.86-1.58,2.01-2.86,3.44-3.84c1.43-0.98,3.07-1.69,4.91-2.12c1.84-0.43,3.81-0.65,5.92-0.65
		c1.67,0,3.33,0.12,4.98,0.36c1.65,0.24,3.14,0.73,4.48,1.47c1.34,0.74,2.41,1.78,3.23,3.11c0.81,1.34,1.22,3.08,1.22,5.22v19.04
		c0,1.43,0.08,2.48,0.25,3.15c0.17,0.67,0.73,1,1.69,1c0.53,0,1.15-0.1,1.86-0.29V123.34z M274.22,104.33
		c-0.77,0.57-1.77,0.99-3.01,1.25c-1.24,0.26-2.55,0.48-3.91,0.64c-1.36,0.17-2.74,0.36-4.12,0.57c-1.39,0.21-2.63,0.56-3.73,1.03
		c-1.1,0.47-2,1.15-2.69,2.03c-0.69,0.88-1.04,2.08-1.04,3.6c0,1,0.2,1.84,0.61,2.53c0.41,0.69,0.93,1.25,1.58,1.68
		c0.65,0.43,1.4,0.74,2.26,0.93c0.86,0.19,1.77,0.29,2.73,0.29c2.01,0,3.73-0.27,5.16-0.82c1.43-0.55,2.61-1.24,3.51-2.07
		c0.91-0.83,1.58-1.74,2.01-2.71c0.43-0.97,0.65-1.89,0.65-2.75V104.33z"/>
	<path class="st7" d="M296.24,72.28v51.21h-6.1V72.28H296.24z"/>
	<path class="st7" d="M306.06,79.73v-7.46h6.1v7.46H306.06z M312.16,86.4v37.08h-6.1V86.4H312.16z"/>
	<path class="st7" d="M337.47,86.4v5.38h-7.39v23.02c0,0.72,0.06,1.29,0.18,1.72c0.12,0.43,0.35,0.77,0.68,1
		c0.33,0.24,0.8,0.39,1.4,0.47c0.6,0.07,1.37,0.11,2.33,0.11h2.8v5.38h-4.66c-1.58,0-2.93-0.11-4.05-0.32
		c-1.12-0.22-2.03-0.61-2.72-1.18c-0.69-0.57-1.21-1.39-1.54-2.44c-0.34-1.05-0.5-2.44-0.5-4.16v-23.6h-6.31V86.4h6.31V75.29h6.1
		V86.4H337.47z"/>
	<path class="st7" d="M358.77,128.43c-0.72,1.82-1.42,3.35-2.12,4.59c-0.69,1.24-1.46,2.26-2.29,3.05c-0.84,0.79-1.77,1.36-2.8,1.72
		c-1.03,0.36-2.21,0.54-3.55,0.54c-0.72,0-1.43-0.05-2.15-0.14c-0.72-0.1-1.41-0.26-2.08-0.5v-5.59c0.53,0.24,1.13,0.44,1.83,0.61
		c0.69,0.17,1.28,0.25,1.76,0.25c1.24,0,2.28-0.3,3.12-0.9c0.84-0.6,1.47-1.45,1.9-2.55l2.51-6.24L340.2,86.4h6.88l10.83,30.34h0.14
		l10.4-30.34h6.46L358.77,128.43z"/>
	<path class="st7" d="M434.65,72.28v5.74h-26.82v16.28h23.52v5.74h-23.52v23.45h-6.81V72.28H434.65z"/>
	<path class="st7" d="M441.54,79.73v-7.46h6.1v7.46H441.54z M447.63,86.4v37.08h-6.1V86.4H447.63z"/>
	<path class="st7" d="M463.55,72.28v51.21h-6.1V72.28H463.55z"/>
	<path class="st7" d="M488.87,86.4v5.38h-7.39v23.02c0,0.72,0.06,1.29,0.18,1.72c0.12,0.43,0.35,0.77,0.68,1
		c0.33,0.24,0.8,0.39,1.4,0.47c0.6,0.07,1.37,0.11,2.33,0.11h2.8v5.38h-4.66c-1.58,0-2.93-0.11-4.05-0.32
		c-1.12-0.22-2.03-0.61-2.73-1.18c-0.69-0.57-1.21-1.39-1.54-2.44c-0.33-1.05-0.5-2.44-0.5-4.16v-23.6h-6.31V86.4h6.31V75.29h6.1
		V86.4H488.87z"/>
	<path class="st7" d="M521.86,121.12c-2.77,2.1-6.26,3.16-10.47,3.16c-2.96,0-5.53-0.48-7.71-1.43s-4-2.29-5.49-4.02
		c-1.48-1.72-2.59-3.78-3.33-6.17c-0.74-2.39-1.16-5-1.25-7.82c0-2.82,0.43-5.4,1.29-7.75c0.86-2.34,2.07-4.38,3.62-6.1
		c1.55-1.72,3.39-3.06,5.52-4.02c2.13-0.96,4.46-1.43,6.99-1.43c3.3,0,6.04,0.68,8.21,2.04c2.17,1.36,3.92,3.1,5.24,5.2
		c1.31,2.1,2.22,4.4,2.73,6.88c0.5,2.49,0.71,4.85,0.61,7.1h-27.75c-0.05,1.63,0.14,3.17,0.57,4.62c0.43,1.46,1.12,2.75,2.08,3.87
		c0.96,1.12,2.17,2.02,3.66,2.69c1.48,0.67,3.23,1,5.24,1c2.58,0,4.7-0.6,6.35-1.79c1.65-1.19,2.74-3.01,3.26-5.45h6.02
		C526.42,115.88,524.63,119.01,521.86,121.12z M520.39,97.31c-0.55-1.29-1.29-2.4-2.22-3.33c-0.93-0.93-2.03-1.67-3.3-2.22
		c-1.27-0.55-2.67-0.82-4.2-0.82c-1.58,0-3,0.28-4.27,0.82c-1.27,0.55-2.36,1.3-3.26,2.26c-0.91,0.96-1.63,2.07-2.15,3.33
		c-0.53,1.27-0.84,2.62-0.93,4.05h21.3C521.26,99.96,520.94,98.6,520.39,97.31z"/>
	<path class="st7" d="M539.64,86.4v7.82h0.14c1.48-3.01,3.3-5.24,5.45-6.67c2.15-1.43,4.88-2.1,8.18-2.01V92
		c-2.44,0-4.52,0.33-6.24,1c-1.72,0.67-3.11,1.65-4.16,2.94c-1.05,1.29-1.82,2.86-2.29,4.7c-0.48,1.84-0.72,3.96-0.72,6.35v16.5
		h-6.1V86.4H539.64z"/>
	<path class="st7" d="M562.67,115.2c0.57,0.93,1.33,1.67,2.26,2.22c0.93,0.55,1.98,0.95,3.16,1.18c1.17,0.24,2.38,0.36,3.62,0.36
		c0.96,0,1.96-0.07,3.01-0.21c1.05-0.14,2.02-0.41,2.9-0.79c0.88-0.38,1.61-0.94,2.19-1.69c0.57-0.74,0.86-1.69,0.86-2.83
		c0-1.58-0.6-2.77-1.79-3.59c-1.2-0.81-2.69-1.47-4.48-1.97s-3.74-0.96-5.84-1.36c-2.1-0.41-4.05-0.98-5.84-1.72
		c-1.79-0.74-3.29-1.78-4.48-3.12c-1.2-1.34-1.79-3.2-1.79-5.59c0-1.86,0.42-3.47,1.25-4.81c0.84-1.34,1.91-2.43,3.23-3.26
		c1.31-0.84,2.8-1.46,4.45-1.86c1.65-0.41,3.29-0.61,4.91-0.61c2.1,0,4.04,0.18,5.81,0.54c1.77,0.36,3.33,0.98,4.7,1.86
		c1.36,0.89,2.45,2.08,3.26,3.59c0.81,1.51,1.29,3.38,1.43,5.63h-6.1c-0.1-1.19-0.41-2.19-0.93-2.98c-0.53-0.79-1.2-1.42-2.01-1.9
		c-0.81-0.48-1.71-0.83-2.69-1.04c-0.98-0.22-1.97-0.32-2.98-0.32c-0.91,0-1.83,0.07-2.76,0.21c-0.93,0.14-1.78,0.39-2.55,0.75
		c-0.77,0.36-1.39,0.84-1.86,1.43c-0.48,0.6-0.72,1.38-0.72,2.33c0,1.05,0.37,1.93,1.11,2.62c0.74,0.69,1.68,1.27,2.83,1.72
		c1.15,0.46,2.44,0.84,3.87,1.15c1.43,0.31,2.87,0.63,4.3,0.97c1.53,0.33,3.02,0.74,4.48,1.22c1.46,0.48,2.75,1.11,3.87,1.9
		c1.12,0.79,2.03,1.78,2.72,2.98c0.69,1.2,1.04,2.68,1.04,4.45c0,2.25-0.47,4.11-1.4,5.59c-0.93,1.48-2.15,2.68-3.66,3.59
		c-1.51,0.91-3.2,1.54-5.09,1.9s-3.76,0.54-5.63,0.54c-2.06,0-4.02-0.21-5.88-0.65c-1.86-0.43-3.51-1.14-4.95-2.12
		c-1.43-0.98-2.58-2.27-3.44-3.87c-0.86-1.6-1.34-3.55-1.43-5.85h6.1C561.78,113.13,562.09,114.27,562.67,115.2z"/>
</g>
</svg>
