<svg enable-background="new 0 0 600 200" viewBox="0 0 600 200" xmlns="http://www.w3.org/2000/svg"><g fill="#25a7ef"><path d="m104.9 88.3-22 71.7h-15.1l-27.7-89.8h14.1l21.1 73.2 22.4-73.2h14.4l22.4 73.2 21.1-73.2h14.1l-27.7 89.9h-15z"/><path d="m250.8 145.7c-7 10.5-17.6 15.8-31.5 15.8-12.7 0-23-4.5-31-13.5-7.8-8.9-11.6-19.8-11.6-32.9s3.9-24 11.6-32.9c8-9 18.6-13.5 31.9-13.5s23.5 5.3 30.7 16v-14.5h13.2v89.9h-13.2v-14.4zm-29.7 3.6c9.5 0 17-3.4 22.6-10.1 5.3-6.4 7.9-14.4 7.9-24.1s-2.6-17.7-7.9-24.1c-5.5-6.7-13-10.1-22.6-10.1-9.4 0-17 3.4-22.9 10.1-5.5 6.4-8.3 14.4-8.3 24.1s2.8 17.7 8.3 24.1c5.8 6.7 13.5 10.1 22.9 10.1z"/><path d="m296.5 160.1v-78.1h-18v-11.8h18v-32.2h13.2v32.2h20.3v11.8h-20.3v78h-13.2z"/><path d="m443.1 160.1h-14.6l-14.3-34.5h-57.8l-14.3 34.5h-14.6l49.5-119.1h16.6zm-34-47-23.8-58.1-23.8 58.1z"/><path d="m471.1 160.1h-13.2v-119.1h55.9c11.9 0 21.4 3.4 28.5 10.1 7.2 6.6 10.7 15.6 10.7 27.2 0 14.9-6.1 25-18.1 30.4-3.4 1.6-6.8 2.7-10 3.4l30.7 48h-15.7l-28.2-45.7h-40.5v45.7zm0-58.5h40.4c12.5 0 21-4 25.7-11.9 1.8-3 2.6-6.8 2.6-11.5 0-7.6-2.5-13.5-7.6-17.9s-11.7-6.6-20.1-6.6h-41.1v47.9z"/></g></svg>