<svg enable-background="new 0 0 512 512" viewBox="0 0 512 512" xmlns="http://www.w3.org/2000/svg"><g fill="#fff"><path d="m192.35 494.38c-11.2 0-22.25-1.43-32.77-5.8-21.53-8.93-35.68-27.21-49.37-44.9-6.44-8.32-12.52-16.17-19.14-22.8-6.62-6.62-14.48-12.7-22.79-19.14-17.69-13.69-35.97-27.85-44.9-49.38-8.59-20.71-5.82-43.43-3.14-65.4 1.26-10.31 2.56-20.97 2.56-30.92s-1.3-20.61-2.56-30.92c-2.68-21.97-5.45-44.69 3.14-65.4 8.93-21.53 27.21-35.68 44.9-49.37 8.32-6.44 16.17-12.52 22.8-19.14 6.63-6.63 12.71-14.48 19.14-22.8 13.69-17.69 27.85-35.97 49.37-44.9 20.71-8.59 43.43-5.82 65.4-3.14 10.31 1.26 20.97 2.56 30.92 2.56s20.61-1.3 30.92-2.56c21.97-2.68 44.69-5.45 65.4 3.14 21.53 8.93 35.68 27.21 49.37 44.9 6.44 8.32 12.52 16.17 19.14 22.8s14.48 12.71 22.8 19.14c17.69 13.69 35.97 27.85 44.9 49.37 8.59 20.71 5.82 43.43 3.14 65.4-1.26 10.31-2.56 20.97-2.56 30.92s1.3 20.61 2.56 30.92c2.68 21.97 5.45 44.69-3.14 65.4-8.93 21.53-27.21 35.68-44.9 49.37-8.32 6.44-16.17 12.52-22.8 19.14-6.62 6.62-12.71 14.48-19.14 22.8-13.69 17.69-27.85 35.97-49.37 44.9-20.71 8.59-43.43 5.82-65.4 3.14-10.31-1.26-20.97-2.56-30.92-2.56s-20.61 1.3-30.92 2.56c-10.82 1.33-21.81 2.67-32.64 2.67zm.01-454.86c-8.78 0-17.02 1.06-24.43 4.14-16.18 6.71-27.98 21.96-40.48 38.1-6.57 8.49-13.36 17.27-20.97 24.87-7.6 7.6-16.38 14.4-24.87 20.97-16.14 12.5-31.39 24.3-38.1 40.48-6.39 15.41-4.08 34.35-1.64 54.41 1.34 10.96 2.72 22.29 2.72 33.56 0 11.28-1.38 22.61-2.72 33.56-2.44 20.05-4.75 39 1.64 54.41 6.71 16.18 21.96 27.98 38.1 40.48 8.49 6.57 17.26 13.36 24.87 20.97 7.6 7.6 14.4 16.38 20.97 24.87 12.5 16.14 24.3 31.39 40.48 38.1 15.41 6.39 34.35 4.08 54.4 1.64 10.96-1.34 22.29-2.72 33.56-2.72 11.28 0 22.61 1.38 33.56 2.72 20.05 2.44 39 4.75 54.4-1.64 16.18-6.71 27.98-21.96 40.48-38.1 6.57-8.49 13.36-17.27 20.97-24.87 7.6-7.6 16.38-14.4 24.87-20.97 16.14-12.5 31.39-24.3 38.1-40.48 6.39-15.41 4.08-34.35 1.64-54.41-1.34-10.96-2.72-22.29-2.72-33.56 0-11.28 1.38-22.61 2.72-33.56 2.44-20.05 4.75-39-1.64-54.41-6.71-16.18-21.96-27.98-38.1-40.48-8.49-6.57-17.27-13.36-24.87-20.97-7.6-7.6-14.4-16.38-20.97-24.87-12.5-16.14-24.3-31.39-40.48-38.1-15.41-6.39-34.35-4.08-54.4-1.64-10.96 1.34-22.29 2.72-33.56 2.72-11.28 0-22.61-1.38-33.56-2.72-10.4-1.27-20.5-2.5-29.97-2.5z"/><path d="m255.9 444.45c-14.23 0-26.33-7.18-37.01-13.51-6.01-3.56-11.68-6.93-17.01-8.65-5.7-1.85-12.51-2.52-19.72-3.23-12.18-1.2-25.98-2.55-37.02-10.59-11.15-8.11-16.7-20.88-21.59-32.13-2.87-6.59-5.57-12.81-9.03-17.57-3.39-4.66-8.42-9.09-13.75-13.78-9.27-8.16-19.78-17.41-24.09-30.71-4.15-12.77-1.32-25.62 1.41-38.05 1.58-7.19 3.07-13.99 3.07-20.18s-1.49-12.99-3.07-20.18c-2.73-12.43-5.55-25.28-1.4-38.05 4.32-13.3 14.82-22.55 24.09-30.71 5.33-4.69 10.36-9.12 13.75-13.78 3.46-4.76 6.17-10.98 9.03-17.57 4.9-11.26 10.45-24.02 21.59-32.13 11.05-8.04 24.85-9.39 37.03-10.59 7.21-.71 14.01-1.37 19.72-3.23 5.32-1.73 11-5.09 17.01-8.65 10.68-6.33 22.78-13.51 37.01-13.51s26.33 7.18 37.01 13.51c6.01 3.56 11.68 6.93 17.01 8.65 5.7 1.85 12.51 2.52 19.72 3.23 12.18 1.19 25.98 2.55 37.03 10.59 11.15 8.11 16.7 20.88 21.6 32.13 2.86 6.59 5.57 12.81 9.03 17.57 3.39 4.66 8.42 9.09 13.75 13.78 9.27 8.16 19.78 17.42 24.09 30.71 4.15 12.77 1.33 25.62-1.4 38.05-1.58 7.19-3.07 13.99-3.07 20.18s1.49 12.99 3.07 20.18c2.73 12.43 5.55 25.28 1.4 38.05-4.32 13.3-14.82 22.55-24.09 30.71-5.33 4.69-10.36 9.12-13.75 13.78-3.46 4.76-6.17 10.98-9.03 17.57-4.9 11.26-10.45 24.02-21.6 32.13-11.05 8.04-24.85 9.39-37.03 10.59-7.21.71-14.01 1.38-19.72 3.23-5.32 1.73-11 5.09-17.01 8.65-10.7 6.33-22.81 13.51-37.03 13.51zm0-354.99c-8.24 0-16.81 5.08-25.88 10.46-6.77 4.01-13.77 8.16-21.39 10.64-7.96 2.58-16.28 3.4-24.32 4.19-10.32 1.01-20.07 1.97-26.32 6.52-6.35 4.62-10.27 13.64-14.42 23.19-3.21 7.38-6.53 15.01-11.4 21.71-4.81 6.6-10.99 12.05-16.97 17.32-7.86 6.92-15.29 13.46-17.76 21.08-2.32 7.14-.24 16.61 1.96 26.63 1.76 8.01 3.58 16.3 3.58 24.86s-1.82 16.85-3.58 24.86c-2.2 10.02-4.28 19.49-1.96 26.63 2.47 7.61 9.9 14.15 17.76 21.08 5.98 5.27 12.17 10.71 16.97 17.31 4.87 6.7 8.19 14.33 11.4 21.71 4.15 9.55 8.08 18.57 14.42 23.19 6.25 4.55 16 5.5 26.32 6.52 8.05.79 16.37 1.61 24.33 4.19 7.63 2.48 14.63 6.62 21.39 10.64 9.07 5.38 17.64 10.46 25.88 10.46s16.81-5.08 25.88-10.46c6.77-4.01 13.77-8.16 21.4-10.64 7.95-2.58 16.28-3.4 24.32-4.19 10.32-1.01 20.07-1.97 26.32-6.52 6.35-4.62 10.27-13.64 14.43-23.19 3.21-7.38 6.53-15.01 11.4-21.71 4.81-6.6 10.99-12.05 16.97-17.32 7.86-6.92 15.29-13.46 17.76-21.08 2.32-7.14.24-16.61-1.96-26.63-1.76-8.01-3.58-16.3-3.58-24.86s1.82-16.85 3.58-24.86c2.2-10.02 4.28-19.49 1.96-26.63-2.47-7.61-9.9-14.15-17.76-21.08-5.98-5.27-12.17-10.71-16.97-17.32-4.87-6.7-8.19-14.33-11.4-21.71-4.15-9.55-8.08-18.57-14.43-23.19-6.25-4.55-16-5.5-26.32-6.52-8.05-.79-16.37-1.61-24.32-4.19-7.63-2.48-14.63-6.63-21.39-10.64-9.09-5.37-17.66-10.45-25.9-10.45z"/><path d="m255.9 380.04c-18.97 0-34.55-9.78-48.3-18.4-3.25-2.04-6.33-3.97-9.37-5.73-3.09-1.79-6.29-3.51-9.68-5.33-14.45-7.77-30.83-16.57-40.05-32.52-9.05-15.64-8.57-33.61-8.1-50.99.1-3.65.2-7.42.2-11.03s-.1-7.38-.2-11.03c-.46-17.38-.94-35.35 8.1-50.99 9.23-15.94 25.6-24.75 40.05-32.51 3.39-1.82 6.59-3.54 9.68-5.33 3.04-1.76 6.12-3.69 9.37-5.73 13.74-8.63 29.32-18.4 48.29-18.4s34.55 9.78 48.29 18.4c3.25 2.04 6.33 3.97 9.37 5.73 3.09 1.79 6.29 3.51 9.68 5.33 14.45 7.77 30.83 16.57 40.05 32.52 9.05 15.64 8.57 33.61 8.1 50.99-.1 3.65-.2 7.42-.2 11.03s.1 7.38.2 11.03c.46 17.38.94 35.35-8.1 50.99-9.22 15.95-25.6 24.75-40.05 32.52-3.39 1.82-6.59 3.54-9.68 5.33-3.04 1.76-6.11 3.69-9.37 5.73-13.73 8.61-29.31 18.39-48.28 18.39zm0-226.18c-12.69 0-24.35 7.32-36.69 15.06-3.27 2.06-6.66 4.18-10.04 6.14s-6.89 3.84-10.28 5.66c-13.05 7.01-25.37 13.64-31.5 24.22-5.96 10.29-5.58 24.47-5.18 39.48.1 3.79.21 7.71.21 11.61s-.1 7.82-.21 11.61c-.4 15.01-.78 29.18 5.18 39.48 6.12 10.59 18.45 17.21 31.5 24.22 3.39 1.82 6.89 3.71 10.28 5.66 3.38 1.96 6.77 4.08 10.04 6.13 12.34 7.75 24 15.06 36.7 15.06 12.69 0 24.35-7.32 36.7-15.06 3.27-2.06 6.66-4.18 10.04-6.13 3.38-1.96 6.89-3.84 10.28-5.66 13.05-7.01 25.37-13.64 31.5-24.23 5.96-10.29 5.58-24.47 5.18-39.48-.1-3.79-.21-7.71-.21-11.61s.1-7.82.21-11.61c.4-15.01.78-29.18-5.18-39.48-6.12-10.59-18.45-17.21-31.5-24.22-3.39-1.82-6.89-3.71-10.28-5.66-3.38-1.96-6.77-4.08-10.04-6.14-12.36-7.73-24.02-15.05-36.71-15.05z"/></g></svg>