<svg enable-background="new 0 0 600 200" viewBox="0 0 600 200" xmlns="http://www.w3.org/2000/svg"><g fill="#f9386a"><path d="m116.94 105.82c0 7.18-1.23 13.73-3.67 19.66-2.45 5.93-5.78 11.01-10 15.26s-9.16 7.54-14.83 9.87-11.75 3.51-18.25 3.51c-6.44 0-12.49-1.2-18.16-3.59-5.67-2.4-10.63-5.73-14.87-10-4.25-4.27-7.59-9.36-10.04-15.25-2.45-5.9-3.67-12.38-3.67-19.45v-81.37h23.42v42.73c1.25-1.59 2.78-3.02 4.57-4.27 1.79-1.26 3.73-2.28 5.81-3.08 2.08-.79 4.23-1.41 6.45-1.83 2.22-.43 4.39-.64 6.5-.64 6.49 0 12.58 1.21 18.25 3.63s10.61 5.8 14.83 10.12c4.22 4.33 7.55 9.44 10 15.34s3.66 12.35 3.66 19.36zm-23.5 0c0-3.53-.61-6.82-1.84-9.87s-2.89-5.68-5-7.9c-2.11-2.23-4.57-3.96-7.39-5.22-2.82-1.25-5.83-1.88-9.02-1.88s-6.2.7-9.02 2.09c-2.82 1.4-5.29 3.25-7.39 5.56-2.11 2.31-3.76 4.96-4.96 7.95s-1.8 6.08-1.8 9.27c0 3.54.6 6.81 1.8 9.83s2.85 5.64 4.96 7.86c2.11 2.23 4.57 3.98 7.39 5.26s5.82 1.93 9.02 1.93c3.19 0 6.19-.64 9.02-1.93 2.82-1.28 5.28-3.03 7.39-5.26 2.11-2.22 3.78-4.84 5-7.86s1.84-6.29 1.84-9.83z"/><path d="m166.25 130.01c.91.28 1.82.47 2.73.55.91.09 1.82.13 2.74.13 2.28 0 4.47-.31 6.58-.94s4.09-1.52 5.94-2.69 3.5-2.59 4.96-4.28c1.45-1.68 2.64-3.54 3.55-5.59l17.09 17.18c-2.16 3.08-4.66 5.84-7.48 8.29s-5.87 4.53-9.15 6.24-6.72 3.01-10.34 3.89-7.33 1.33-11.15 1.33c-6.44 0-12.49-1.2-18.16-3.59-5.67-2.4-10.63-5.73-14.87-10-4.25-4.27-7.59-9.36-10.04-15.25-2.45-5.9-3.68-12.38-3.68-19.45 0-7.23 1.23-13.85 3.68-19.83s5.8-11.08 10.04-15.3 9.2-7.49 14.87-9.83 11.72-3.51 18.16-3.51c3.82 0 7.55.46 11.2 1.37s7.11 2.22 10.38 3.93c3.28 1.71 6.34 3.8 9.19 6.28s5.35 5.26 7.52 8.33zm11.97-48.12c-1.08-.4-2.15-.66-3.2-.77s-2.15-.17-3.29-.17c-3.19 0-6.2.58-9.02 1.75s-5.27 2.83-7.35 5-3.72 4.77-4.92 7.82-1.79 6.48-1.79 10.3c0 .86.04 1.82.13 2.91.09 1.08.23 2.18.43 3.29s.44 2.18.73 3.21c.28 1.02.65 1.94 1.11 2.73z"/><path d="m309.66 152.4h-5.64l-9.06-12.56c-2.22 2-4.57 3.86-7.05 5.59-2.48 1.74-5.08 3.25-7.82 4.53s-5.54 2.29-8.42 3.03-5.8 1.11-8.76 1.11c-6.44 0-12.49-1.08-18.16-3.25-5.67-2.16-10.63-5.31-14.87-9.44-4.25-4.13-7.59-9.19-10.04-15.17s-3.68-12.79-3.68-20.43c0-7.12 1.23-13.66 3.68-19.61s5.8-11.07 10.04-15.34c4.24-4.28 9.2-7.59 14.87-9.96 5.67-2.36 11.72-3.54 18.16-3.54 2.96 0 5.9.37 8.8 1.11s5.72 1.77 8.46 3.07c2.73 1.31 5.34 2.85 7.82 4.61 2.48 1.77 4.8 3.68 6.96 5.73l9.06-10.86h5.64v91.38zm-23.51-46.58c0-3.19-.61-6.28-1.84-9.27s-2.89-5.64-5-7.95-4.57-4.16-7.39-5.56-5.83-2.09-9.02-2.09-6.2.54-9.02 1.62-5.27 2.68-7.35 4.79-3.72 4.72-4.92 7.82c-1.2 3.11-1.79 6.65-1.79 10.64s.6 7.54 1.79 10.64c1.2 3.11 2.83 5.71 4.92 7.82 2.08 2.11 4.53 3.71 7.35 4.79s5.82 1.63 9.02 1.63c3.19 0 6.19-.7 9.02-2.09 2.82-1.4 5.28-3.25 7.39-5.56s3.78-4.96 5-7.95c1.23-3 1.84-6.09 1.84-9.28z"/><path d="m373.32 152.4c-5.64 0-10.94-1.07-15.9-3.21-4.96-2.13-9.3-5.07-13.03-8.8s-6.67-8.08-8.81-13.03c-2.13-4.96-3.2-10.26-3.2-15.9v-27.17h-11.37v-23.25h11.37v-36.58h23.24v36.58h35.38v23.25h-35.38v27.18c0 2.45.46 4.74 1.37 6.88s2.16 4 3.76 5.6c1.59 1.59 3.47 2.86 5.64 3.8s4.47 1.41 6.92 1.41h17.69v23.24z"/><path d="m454.34 152.4h-53.33v-23.24h53.33c1.59 0 2.96-.57 4.1-1.71s1.71-2.51 1.71-4.1c0-1.65-.57-2.74-1.71-3.25s-2.51-.77-4.1-.77h-24.27c-4.04 0-7.83-.77-11.37-2.3-3.53-1.54-6.61-3.63-9.23-6.29-2.62-2.65-4.69-5.74-6.2-9.27s-2.27-7.32-2.27-11.37.76-7.83 2.27-11.37 3.57-6.61 6.2-9.23c2.62-2.62 5.7-4.69 9.23-6.2 3.54-1.51 7.33-2.27 11.37-2.27h47.26v23.25h-47.26c-1.6 0-2.97.57-4.1 1.71-1.14 1.14-1.71 2.51-1.71 4.1 0 1.65.57 3.06 1.71 4.23s2.51 1.75 4.1 1.75h24.27c3.99 0 7.75.67 11.28 2.01s6.61 3.2 9.23 5.59c2.62 2.4 4.7 5.27 6.24 8.63s2.31 7.04 2.31 11.03c0 4.04-.77 7.82-2.31 11.32-1.54 3.51-3.62 6.58-6.24 9.23s-5.7 4.73-9.23 6.24c-3.53 1.52-7.29 2.28-11.28 2.28z"/><path d="m517.84 187.27v-23.5l12.99.17c2.28 0 4.48-.37 6.58-1.11 2.1-.75 4.06-1.77 5.85-3.08s3.37-2.86 4.74-4.66 2.48-3.75 3.33-5.85c-2.56 1.08-5.17 2.17-7.82 3.25s-5.31 1.63-7.99 1.63c-5.64 0-10.94-1-15.9-2.99-4.96-2-9.3-4.83-13.03-8.51-3.73-3.67-6.67-8.14-8.81-13.41-2.13-5.27-3.2-11.18-3.2-17.73v-50.61h23.24v50.59c0 3.25.47 6.08 1.41 8.5s2.21 4.44 3.8 6.07c1.59 1.62 3.46 2.83 5.6 3.63s4.43 1.2 6.88 1.2c2.39 0 4.66-.55 6.8-1.66s4-2.58 5.6-4.4c1.59-1.82 2.85-3.89 3.76-6.2s1.36-4.69 1.36-7.13v-50.6h23.5v79.99c-.06 6.44-1.31 12.48-3.76 18.12s-5.8 10.57-10.04 14.79c-4.25 4.22-9.19 7.55-14.83 10s-11.68 3.68-18.12 3.68z"/></g></svg>